<?xml version="1.0" encoding="iso-8859-1"?>
<!-- Generator: Adobe Illustrator 19.0.0, SVG Export Plug-In . SVG Version: 6.00 Build 0)  -->
<svg version="1.1" id="Capa_1" xmlns="http://www.w3.org/2000/svg" xmlns:xlink="http://www.w3.org/1999/xlink" x="0px" y="0px"
	 viewBox="0 0 512 512" style="enable-background:new 0 0 512 512;" xml:space="preserve">
<g>
	<g>
		<path d="M176,146c-5.52,0-10,4.48-10,10s4.48,10,10,10s10-4.48,10-10S181.52,146,176,146z"/>
	</g>
</g>
<g>
	<g>
		<path d="M416,0H96C79.458,0,66,13.458,66,30v452c0,16.542,13.458,30,30,30h260c49.626,0,90-40.374,90-90V30
			C446,13.458,432.542,0,416,0z M426,422c0,38.598-31.402,70-70,70H96c-5.514,0-10-4.486-10-10V30c0-5.514,4.486-10,10-10h320
			c5.514,0,10,4.486,10,10V422z"/>
	</g>
</g>
<g>
	<g>
		<path d="M396,40H116c-5.522,0-10,4.477-10,10v209c0,5.523,4.478,10,10,10h240c27.57,0,50-22.43,50-50V50
			C406,44.477,401.522,40,396,40z M386,219c0,16.542-13.458,30-30,30H126V60h260V219z"/>
	</g>
</g>
<g>
	<g>
		<path d="M316,332c-16.542,0-30,13.458-30,30s13.458,30,30,30s30-13.458,30-30S332.542,332,316,332z M316,372
			c-5.514,0-10-4.486-10-10c0-5.514,4.486-10,10-10c5.514,0,10,4.486,10,10C326,367.514,321.514,372,316,372z"/>
	</g>
</g>
<g>
	<g>
		<path d="M376,292c-16.542,0-30,13.458-30,30s13.458,30,30,30s30-13.458,30-30S392.542,292,376,292z M376,332
			c-5.514,0-10-4.486-10-10c0-5.514,4.486-10,10-10c5.514,0,10,4.486,10,10C386,327.514,381.514,332,376,332z"/>
	</g>
</g>
<g>
	<g>
		<path d="M216,322h-20v-20c0-5.523-4.478-10-10-10h-40c-5.522,0-10,4.477-10,10v20h-20c-5.522,0-10,4.477-10,10v40
			c0,5.523,4.478,10,10,10h20v20c0,5.523,4.478,10,10,10h40c5.522,0,10-4.477,10-10v-20h20c5.522,0,10-4.477,10-10v-40
			C226,326.477,221.522,322,216,322z M206,362h-20c-5.522,0-10,4.477-10,10v20h-20v-20c0-5.523-4.478-10-10-10h-20v-20h20
			c5.522,0,10-4.477,10-10v-20h20v20c0,5.523,4.478,10,10,10h20V362z"/>
	</g>
</g>
<g>
	<g>
		<path d="M336,146H216c-5.522,0-10,4.477-10,10s4.478,10,10,10h120c5.522,0,10-4.477,10-10S341.522,146,336,146z"/>
	</g>
</g>
<g>
	<g>
		<path d="M242.79,414.658c-4.053-3.748-10.379-3.503-14.131,0.551l-21.21,22.93c-3.75,4.055-3.504,10.381,0.551,14.131
			c1.924,1.78,4.358,2.659,6.788,2.659c2.689,0,5.372-1.079,7.343-3.209l21.21-22.93
			C247.091,424.735,246.845,418.409,242.79,414.658z"/>
	</g>
</g>
<g>
	<g>
		<path d="M304,411.73c-4.053-3.75-10.379-3.505-14.131,0.549l-21.21,22.93c-3.75,4.055-3.504,10.381,0.551,14.132
			c1.924,1.779,4.358,2.659,6.788,2.659c2.689,0,5.372-1.079,7.343-3.209l21.21-22.93C308.301,421.806,308.055,415.48,304,411.73z"
			/>
	</g>
</g>
<g>
</g>
<g>
</g>
<g>
</g>
<g>
</g>
<g>
</g>
<g>
</g>
<g>
</g>
<g>
</g>
<g>
</g>
<g>
</g>
<g>
</g>
<g>
</g>
<g>
</g>
<g>
</g>
<g>
</g>
</svg>
